<svg width="48" height="49" viewBox="0 0 48 49" fill="none" xmlns="http://www.w3.org/2000/svg">
<path d="M23.9221 45.8081C35.4188 45.8081 44.7387 36.4882 44.7387 24.9915C44.7387 13.4947 35.4188 4.1748 23.9221 4.1748C12.4254 4.1748 3.10547 13.4947 3.10547 24.9915C3.10547 36.4882 12.4254 45.8081 23.9221 45.8081Z" fill="#91DDF8"/>
<path d="M23.9227 38.8688C31.5872 38.8688 37.8004 32.6556 37.8004 24.9911C37.8004 17.3266 31.5872 11.1133 23.9227 11.1133C16.2582 11.1133 10.0449 17.3266 10.0449 24.9911C10.0449 32.6556 16.2582 38.8688 23.9227 38.8688Z" fill="#009DD6"/>
<path d="M23.923 30.7738C27.1166 30.7738 29.7054 28.1849 29.7054 24.9914C29.7054 21.7978 27.1166 19.209 23.923 19.209C20.7295 19.209 18.1406 21.7978 18.1406 24.9914C18.1406 28.1849 20.7295 30.7738 23.923 30.7738Z" fill="#91DDF8"/>
<path fill-rule="evenodd" clip-rule="evenodd" d="M43.6814 7.87458C44.0665 7.83119 44.4035 8.04854 44.5662 8.38394C44.7289 8.71804 44.6674 9.11855 44.414 9.39297L38.6367 15.5884C38.4723 15.7647 38.2454 15.8663 38.0075 15.8746C37.9607 15.8763 37.9137 15.874 37.8666 15.8678L34.3078 15.4328L24.577 26.0482C24.2038 26.4553 23.5712 26.4828 23.1641 26.1096C22.757 25.7365 22.7295 25.1039 23.1027 24.6968L32.8847 14.0255L32.2216 10.6038C32.1661 10.3193 32.2497 10.0274 32.4467 9.81608L38.224 3.6207C38.4787 3.34753 38.874 3.25952 39.2186 3.3972C39.5645 3.53613 39.7897 3.87195 39.7871 4.24437L39.7541 8.18356L43.6814 7.87458Z" fill="#7849B8"/>
</svg>
