<svg width="108" height="60" viewBox="0 0 108 60" fill="none" xmlns="http://www.w3.org/2000/svg">
<g clip-path="url(#clip0_1888_12146)">
<path d="M24 55.7227H0V57.7227H24V55.7227Z" fill="#EC111A"/>
<path d="M55 59.2227C65.4934 59.2227 74 58.1034 74 56.7227C74 55.3419 65.4934 54.2227 55 54.2227C44.5066 54.2227 36 55.3419 36 56.7227C36 58.1034 44.5066 59.2227 55 59.2227Z" fill="#F6F6F6"/>
<path d="M108 55.7227H84V57.7227H108V55.7227Z" fill="#EC111A"/>
<path d="M30 23.9924V24.7024C30.19 37.8224 40.93 48.3224 54.05 48.2224C67.17 48.1224 77.75 37.4624 77.75 24.3424C77.75 11.2224 67.17 0.572387 54.05 0.472387C40.93 0.372387 30.19 10.8824 30 23.9924Z" fill="#EC111A"/>
<path d="M57.2802 23.9926L62.7902 18.4826C63.8302 17.4426 63.8302 15.7526 62.7902 14.7126C61.7502 13.6726 60.0602 13.6726 59.0202 14.7126L53.5102 20.2226L48.0002 14.7126C46.9602 13.6726 45.2702 13.6726 44.2302 14.7126C43.1902 15.7526 43.1902 17.4426 44.2302 18.4826L49.7402 23.9926L44.2302 29.5026C43.1902 30.5426 43.1902 32.2326 44.2302 33.2726C45.2702 34.3126 46.9602 34.3126 48.0002 33.2726L53.5102 27.7626L59.0202 33.2726C60.0602 34.3126 61.7502 34.3126 62.7902 33.2726C63.8302 32.2326 63.8302 30.5426 62.7902 29.5026L57.2802 23.9926Z" fill="white"/>
</g>
<defs>
<clipPath id="clip0_1888_12146">
<rect width="108" height="58.75" fill="white" transform="translate(0 0.472656)"/>
</clipPath>
</defs>
</svg>
