<svg width="56" height="56" viewBox="0 0 56 56" fill="none" xmlns="http://www.w3.org/2000/svg">
<path fill-rule="evenodd" clip-rule="evenodd" d="M38.1407 21.6752C27.7007 13.0674 21.4998 7.98927 19.5375 6.44092C16.594 4.11841 18.1694 4.42885 15.1224 4.42885C14.3866 4.42885 15.4444 6.5214 15.4444 6.5214L23.4926 21.6637L38.1407 21.6752Z" stroke="#EC111A" stroke-width="1.2" stroke-linecap="round" stroke-linejoin="round"/>
<path d="M21.6779 35.472H13.0546C9.35843 35.477 6.13393 32.9638 5.23628 29.3783L1.55707 14.7764H4.7304C5.6449 14.7772 6.52164 15.1411 7.16788 15.7882L12.7212 21.3415C12.9354 21.5538 13.2244 21.6736 13.526 21.6749H46.3977C48.6971 21.6749 54.446 23.9744 54.446 28.5734C54.446 33.1724 48.6971 35.472 46.3977 35.472H37.2801" stroke="#7849B8" stroke-width="1.2" stroke-linecap="round" stroke-linejoin="round"/>
<path fill-rule="evenodd" clip-rule="evenodd" d="M41.5914 30.873C29.3734 41.4202 22.1911 47.5522 20.0449 49.2692C16.8372 51.9252 17.297 51.5688 15.2275 51.5688C14.3191 51.5688 15.4804 49.2692 15.4804 49.2692C18.3089 43.3747 21.1448 37.4842 23.9887 31.5975C24.1788 31.1982 24.5812 30.9434 25.0234 30.9421L41.5914 30.873Z" stroke="#EC111A" stroke-width="1.2" stroke-linecap="round" stroke-linejoin="round"/>
<path d="M46.3977 26.2744H53.8712" stroke="#7849B8" stroke-width="1.2" stroke-linecap="round" stroke-linejoin="round"/>
</svg>
