<svg width="27" height="30" viewBox="0 0 27 30" fill="none" xmlns="http://www.w3.org/2000/svg">
<path d="M14.6896 6.76534C15.035 6.33439 14.9656 5.70503 14.5347 5.35964C14.1037 5.01424 13.4744 5.0836 13.129 5.51456L14.6896 6.76534ZM2.35904 20.5513L3.11642 21.2043C3.12423 21.1952 3.13187 21.186 3.13935 21.1767L2.35904 20.5513ZM2.02417 21.3699L1.02629 21.3048C1.02588 21.3111 1.02553 21.3174 1.02524 21.3236L2.02417 21.3699ZM1.75 27.2899L0.751071 27.2437C0.748771 27.2933 0.750177 27.3431 0.755277 27.3925L1.75 27.2899ZM3.29121 28.6353L3.3239 29.6348C3.39059 29.6326 3.45689 29.6238 3.52182 29.6084L3.29121 28.6353ZM9.16621 27.2429L9.39682 28.216C9.40201 28.2148 9.4072 28.2135 9.41237 28.2122L9.16621 27.2429ZM9.92017 26.7651L10.6916 27.4015L10.7003 27.3907L9.92017 26.7651ZM22.5286 12.6406C22.8742 12.2097 22.805 11.5803 22.3741 11.2348C21.9432 10.8893 21.3139 10.9585 20.9684 11.3893L22.5286 12.6406ZM13.1351 5.51429C12.7895 5.94513 12.8587 6.57451 13.2895 6.92005C13.7203 7.26559 14.3497 7.19644 14.6953 6.7656L13.1351 5.51429ZM17.025 2.26245L17.8051 2.8881C17.8182 2.87172 17.8309 2.85492 17.843 2.83774L17.025 2.26245ZM20.2151 1.63578L20.8549 0.867195C20.823 0.840687 20.7896 0.816184 20.7547 0.793828L20.2151 1.63578ZM24.5959 5.2822L25.3037 4.57574C25.282 4.554 25.2593 4.53327 25.2357 4.51361L24.5959 5.2822ZM25.2557 6.88975L26.2557 6.89524V6.89524L25.2557 6.88975ZM24.5783 8.48995L23.8783 7.77576C23.85 7.80354 23.8233 7.83298 23.7985 7.86393L24.5783 8.48995ZM20.9687 11.3889C20.6229 11.8196 20.6918 12.449 21.1225 12.7948C21.5532 13.1405 22.1826 13.0716 22.5283 12.641L20.9687 11.3889ZM14.9041 5.99175C14.8223 5.44556 14.3132 5.06914 13.767 5.15099C13.2208 5.23284 12.8444 5.74196 12.9262 6.28815L14.9041 5.99175ZM21.8831 13.0058C22.4304 12.9315 22.8138 12.4276 22.7394 11.8803C22.665 11.3331 22.1611 10.9497 21.6139 11.0241L21.8831 13.0058ZM13.129 5.51456L1.57873 19.9259L3.13935 21.1767L14.6896 6.76534L13.129 5.51456ZM1.60167 19.8983C1.26212 20.2922 1.06013 20.7859 1.02629 21.3048L3.02205 21.435C3.0276 21.3499 3.06072 21.2689 3.11642 21.2043L1.60167 19.8983ZM1.02524 21.3236L0.751071 27.2437L2.74893 27.3362L3.0231 21.4162L1.02524 21.3236ZM0.755277 27.3925C0.889971 28.6984 2.01178 29.6777 3.3239 29.6348L3.25852 27.6359C2.99606 27.6444 2.77166 27.4486 2.74472 27.1874L0.755277 27.3925ZM3.52182 29.6084L9.39682 28.216L8.9356 26.2699L3.0606 27.6623L3.52182 29.6084ZM9.41237 28.2122C9.91409 28.0848 10.3622 27.8008 10.6916 27.4015L9.14877 26.1288C9.08987 26.2002 9.00976 26.2509 8.92005 26.2737L9.41237 28.2122ZM10.7003 27.3907L22.5286 12.6406L20.9684 11.3893L9.14003 26.1395L10.7003 27.3907ZM14.6953 6.7656L17.8051 2.8881L16.2449 1.63679L13.1351 5.51429L14.6953 6.7656ZM17.843 2.83774C18.2589 2.24637 19.0669 2.08765 19.6756 2.47774L20.7547 0.793828C19.2441 -0.174163 17.2392 0.219695 16.207 1.68716L17.843 2.83774ZM19.5754 2.40437L23.9562 6.05079L25.2357 4.51361L20.8549 0.867195L19.5754 2.40437ZM23.8882 5.98865C24.1253 6.22619 24.2576 6.54863 24.2558 6.88425L26.2557 6.89524C26.2605 6.02603 25.9177 5.19095 25.3037 4.57574L23.8882 5.98865ZM24.2558 6.88425C24.2539 7.21987 24.118 7.54084 23.8783 7.77576L25.2782 9.20414C25.899 8.59572 26.251 7.76445 26.2557 6.89524L24.2558 6.88425ZM23.7985 7.86393L20.9687 11.3889L22.5283 12.641L25.3581 9.11596L23.7985 7.86393ZM12.9262 6.28815C13.5724 10.6 17.5628 13.5929 21.8831 13.0058L21.6139 11.0241C18.3774 11.4638 15.3882 9.22185 14.9041 5.99175L12.9262 6.28815Z" fill="#367AA4"/>
</svg>
