<svg width="56" height="57" viewBox="0 0 56 57" fill="none" xmlns="http://www.w3.org/2000/svg">
<path d="M4.66016 24.287L7.81049 14.6175C8.5814 12.2533 10.7851 10.6527 13.2718 10.6509H29.4949C31.5844 10.6531 33.5081 11.7888 34.5194 13.6172L40.3946 24.218" stroke="#009DD6" stroke-width="1.2" stroke-linecap="round" stroke-linejoin="round"/>
<path d="M20.5254 10.6509V23.2982" stroke="#009DD6" stroke-width="1.2" stroke-linecap="round" stroke-linejoin="round"/>
<path d="M7.30445 40.5449H3.85518C2.58519 40.5449 1.55567 39.5153 1.55567 38.2454V28.1045C1.55343 26.9212 2.22157 25.8388 3.28031 25.3105C4.41616 24.7448 5.66757 24.4496 6.93653 24.4482H38.6468C42.2577 24.4502 45.8446 25.0325 49.2706 26.1728C52.3593 27.202 54.4433 30.0918 54.4446 33.3473V38.2454C54.4446 39.5153 53.415 40.5449 52.1451 40.5449H48.6957" stroke="#EC111A" stroke-width="1.2"/>
<path d="M37.1979 40.5449H18.8018" stroke="#EC111A" stroke-width="1.2"/>
<path fill-rule="evenodd" clip-rule="evenodd" d="M13.0525 46.2935C16.2274 46.2935 18.8013 43.7196 18.8013 40.5447C18.8013 37.3697 16.2274 34.7959 13.0525 34.7959C9.87753 34.7959 7.30371 37.3697 7.30371 40.5447C7.30371 43.7196 9.87753 46.2935 13.0525 46.2935Z" stroke="#009DD6" stroke-width="1.2" stroke-linecap="round" stroke-linejoin="round"/>
<path fill-rule="evenodd" clip-rule="evenodd" d="M42.9471 46.2935C46.1221 46.2935 48.6959 43.7196 48.6959 40.5447C48.6959 37.3697 46.1221 34.7959 42.9471 34.7959C39.7721 34.7959 37.1982 37.3697 37.1982 40.5447C37.1982 43.7196 39.7721 46.2935 42.9471 46.2935Z" stroke="#009DD6" stroke-width="1.2" stroke-linecap="round" stroke-linejoin="round"/>
</svg>
