<svg width="23" height="30" viewBox="0 0 23 30" fill="none" xmlns="http://www.w3.org/2000/svg">
<path fill-rule="evenodd" clip-rule="evenodd" d="M19.6605 9.09766H3.33979C2.43885 9.09766 1.7085 9.82801 1.7085 10.7289V23.7852C1.7085 26.489 3.90044 28.681 6.60433 28.681H16.396C17.6945 28.681 18.9397 28.1652 19.8579 27.247C20.776 26.3289 21.2918 25.0836 21.2918 23.7852V10.7289C21.2918 9.82801 20.5615 9.09766 19.6605 9.09766Z" stroke="#367AA4" stroke-width="2" stroke-linecap="round" stroke-linejoin="round"/>
<path fill-rule="evenodd" clip-rule="evenodd" d="M17.375 5.18083L15.9572 2.34712C15.6257 1.68377 14.948 1.26456 14.2064 1.26416H8.79358C8.05203 1.26456 7.37431 1.68377 7.04283 2.34712L5.625 5.18083H17.375Z" stroke="#367AA4" stroke-width="2" stroke-linecap="round" stroke-linejoin="round"/>
<path d="M9.23562 15.6245C9.23562 15.0722 8.78791 14.6245 8.23562 14.6245C7.68334 14.6245 7.23562 15.0722 7.23562 15.6245H9.23562ZM7.23562 22.1516C7.23562 22.7039 7.68334 23.1516 8.23562 23.1516C8.78791 23.1516 9.23562 22.7039 9.23562 22.1516H7.23562ZM15.7647 15.6245C15.7647 15.0722 15.317 14.6245 14.7647 14.6245C14.2124 14.6245 13.7647 15.0722 13.7647 15.6245H15.7647ZM13.7647 22.1516C13.7647 22.7039 14.2124 23.1516 14.7647 23.1516C15.317 23.1516 15.7647 22.7039 15.7647 22.1516H13.7647ZM17.3752 4.18066C16.8229 4.18066 16.3752 4.62838 16.3752 5.18066C16.3752 5.73295 16.8229 6.18066 17.3752 6.18066V4.18066ZM21.2918 6.18066C21.8441 6.18066 22.2918 5.73295 22.2918 5.18066C22.2918 4.62838 21.8441 4.18066 21.2918 4.18066V6.18066ZM5.62516 6.18066C6.17745 6.18066 6.62516 5.73295 6.62516 5.18066C6.62516 4.62838 6.17745 4.18066 5.62516 4.18066V6.18066ZM1.7085 4.18066C1.15621 4.18066 0.708496 4.62838 0.708496 5.18066C0.708496 5.73295 1.15621 6.18066 1.7085 6.18066V4.18066ZM7.23562 15.6245V22.1516H9.23562V15.6245H7.23562ZM13.7647 15.6245V22.1516H15.7647V15.6245H13.7647ZM17.3752 6.18066H21.2918V4.18066H17.3752V6.18066ZM5.62516 4.18066H1.7085V6.18066H5.62516V4.18066Z" fill="#367AA4"/>
</svg>
