<svg width="33" height="54" viewBox="0 0 33 54" fill="none" xmlns="http://www.w3.org/2000/svg">
<path d="M28.5989 11.4446H4.40137L5.61124 4.01249C5.95692 2.2841 7.33964 1.07422 9.06803 1.07422H23.9322C25.6606 1.07422 27.0433 2.2841 27.389 4.01249L28.5989 11.4446Z" stroke="#009DD6" stroke-miterlimit="10"/>
<path d="M23.9322 52.926H9.06803C7.33964 52.926 5.95692 51.7162 5.61124 49.9878L4.40137 42.5557H28.5989L27.389 49.9878C27.0433 51.7162 25.6606 52.926 23.9322 52.926Z" stroke="#009DD6" stroke-miterlimit="10"/>
<path d="M24.1047 22.6794C22.722 21.1238 20.3022 21.1238 18.7466 22.6794L16.4997 24.9263L14.2528 22.6794C12.8701 21.1238 10.4504 21.1238 8.8948 22.6794C7.33924 24.2349 7.51208 26.6547 8.8948 28.2102L11.1417 30.4571L16.4997 35.988L21.8578 30.4571L24.1047 28.2102C25.4874 26.6547 25.4874 24.2349 24.1047 22.6794Z" stroke="#7849B8" stroke-linecap="round" stroke-linejoin="round"/>
<path d="M25.1419 42.5554H7.85792C4.05545 42.5554 0.944336 39.4443 0.944336 35.6419V18.3579C0.944336 14.5554 4.05545 11.4443 7.85792 11.4443H25.1419C28.9443 11.4443 32.0554 14.5554 32.0554 18.3579V35.6419C32.0554 39.4443 28.9443 42.5554 25.1419 42.5554Z" stroke="#EC111A" stroke-miterlimit="10"/>
</svg>
