<svg width="48" height="49" viewBox="0 0 48 49" fill="none" xmlns="http://www.w3.org/2000/svg">
<path d="M18.3359 15.9732C18.3359 8.14977 24.6781 1.80762 32.5016 1.80762C40.325 1.80762 46.6672 8.14977 46.6672 15.9732C46.6672 23.7967 40.325 30.1389 32.5016 30.1389C24.6781 30.1389 18.3359 23.7967 18.3359 15.9732Z" fill="#138468"/>
<path fill-rule="evenodd" clip-rule="evenodd" d="M32.5542 6.47363C33.1065 6.47363 33.5542 6.92135 33.5542 7.47363V8.60721C34.5121 8.764 35.3878 9.1301 36.0907 9.66065C37.0476 10.3829 37.7301 11.4551 37.7301 12.721C37.7301 13.2732 37.2824 13.721 36.7301 13.721C36.1778 13.721 35.7301 13.2732 35.7301 12.721C35.7301 12.2206 35.4636 11.6931 34.8859 11.257C34.3077 10.8207 33.464 10.5214 32.4901 10.5214C31.5161 10.5214 30.6724 10.8207 30.0942 11.257C29.5165 11.6931 29.25 12.2206 29.25 12.721C29.25 13.2221 29.5167 13.7495 30.0941 14.1853C30.6722 14.6215 31.5159 14.9205 32.4901 14.9205C33.858 14.9205 35.1343 15.338 36.0907 16.0598C37.0476 16.782 37.7301 17.8543 37.7301 19.1201C37.7301 20.3864 37.0477 21.4587 36.0906 22.1809C35.3877 22.7114 34.512 23.0772 33.5542 23.2339V24.3674C33.5542 24.9197 33.1065 25.3674 32.5542 25.3674C32.0019 25.3674 31.5542 24.9197 31.5542 24.3674V23.2535C30.5464 23.1094 29.6237 22.735 28.8895 22.1809C27.9324 21.4587 27.25 20.3864 27.25 19.1201C27.25 18.5678 27.6977 18.1201 28.25 18.1201C28.8023 18.1201 29.25 18.5678 29.25 19.1201C29.25 19.6212 29.5167 20.1487 30.0941 20.5844C30.6722 21.0206 31.5159 21.3197 32.4901 21.3197C33.4642 21.3197 34.3079 21.0206 34.886 20.5844C35.4634 20.1487 35.7301 19.6212 35.7301 19.1201C35.7301 18.6198 35.4636 18.0922 34.8859 17.6562C34.3077 17.2198 33.464 16.9205 32.4901 16.9205C31.1223 16.9205 29.846 16.5035 28.8895 15.7818C27.9324 15.0596 27.25 13.9873 27.25 12.721C27.25 11.4551 27.9325 10.3829 28.8894 9.66065C29.6236 9.1065 30.5462 8.73175 31.5542 8.58753V7.47363C31.5542 6.92135 32.0019 6.47363 32.5542 6.47363Z" fill="white"/>
<path d="M1.33594 32.9723C1.33594 25.1488 7.67809 18.8066 15.5016 18.8066C23.325 18.8066 29.6672 25.1488 29.6672 32.9723C29.6672 40.7957 23.325 47.1379 15.5016 47.1379C7.67809 47.1379 1.33594 40.7957 1.33594 32.9723Z" fill="#7849B8"/>
<path fill-rule="evenodd" clip-rule="evenodd" d="M15.5562 23.4727C16.1085 23.4727 16.5562 23.9204 16.5562 24.4727V25.6063C17.5141 25.7631 18.3898 26.1292 19.0927 26.6598C20.0495 27.382 20.7321 28.4542 20.7321 29.72C20.7321 30.2723 20.2843 30.72 19.7321 30.72C19.1798 30.72 18.7321 30.2723 18.7321 29.72C18.7321 29.2197 18.4655 28.6921 17.8878 28.2561C17.3097 27.8197 16.4659 27.5205 15.492 27.5205C14.5181 27.5205 13.6743 27.8197 13.0962 28.2561C12.5185 28.6921 12.252 29.2197 12.252 29.72C12.252 30.2211 12.5186 30.7486 13.0961 31.1844C13.6741 31.6205 14.5179 31.9196 15.492 31.9196C16.86 31.9196 18.1363 32.337 19.0927 33.0589C20.0495 33.7811 20.7321 34.8533 20.7321 36.1192C20.7321 37.3855 20.0497 38.4578 19.0926 39.18C18.3896 39.7104 17.5139 40.0763 16.5562 40.2329V41.3665C16.5562 41.9187 16.1085 42.3665 15.5562 42.3665C15.0039 42.3665 14.5562 41.9187 14.5562 41.3665V40.2526C13.5483 40.1085 12.6257 39.734 11.8914 39.18C10.9344 38.4578 10.252 37.3855 10.252 36.1192C10.252 35.5669 10.6997 35.1192 11.252 35.1192C11.8042 35.1192 12.252 35.5669 12.252 36.1192C12.252 36.6203 12.5186 37.1478 13.0961 37.5835C13.6741 38.0197 14.5179 38.3187 15.492 38.3187C16.4662 38.3187 17.3099 38.0197 17.8879 37.5835C18.4654 37.1478 18.7321 36.6203 18.7321 36.1192C18.7321 35.6188 18.4655 35.0913 17.8878 34.6552C17.3097 34.2189 16.4659 33.9196 15.492 33.9196C14.1242 33.9196 12.8479 33.5026 11.8914 32.7808C10.9344 32.0587 10.252 30.9864 10.252 29.72C10.252 28.4542 10.9345 27.382 11.8913 26.6598C12.6255 26.1056 13.5482 25.7309 14.5562 25.5866V24.4727C14.5562 23.9204 15.0039 23.4727 15.5562 23.4727Z" fill="white"/>
</svg>
