<svg width="48" height="49" fill="none" xmlns="http://www.w3.org/2000/svg"><path d="M23.922 45.808c11.497 0 20.817-9.32 20.817-20.817 0-11.496-9.32-20.816-20.817-20.816S3.105 13.495 3.105 24.99c0 11.497 9.32 20.817 20.817 20.817z" fill="#91DDF8"/><path d="M23.923 38.869c7.664 0 13.877-6.213 13.877-13.878 0-7.664-6.213-13.878-13.877-13.878-7.665 0-13.878 6.214-13.878 13.878 0 7.665 6.213 13.878 13.878 13.878z" fill="#009DD6"/><path d="M23.923 30.774a5.782 5.782 0 100-11.565 5.782 5.782 0 000 11.565z" fill="#91DDF8"/><path fill-rule="evenodd" clip-rule="evenodd" d="M43.681 7.875c.386-.044.723.174.885.509a.905.905 0 01-.152 1.009l-5.777 6.195a.903.903 0 01-.77.28l-3.56-.435-9.73 10.615a1 1 0 01-1.474-1.351l9.782-10.671-.663-3.422a.9.9 0 01.225-.788l5.777-6.195a.902.902 0 011.563.623l-.033 3.94 3.927-.31z" fill="#7849B8"/></svg>