<svg width="108" height="60" fill="none" xmlns="http://www.w3.org/2000/svg"><g clip-path="url(#clip0_1888_12146)"><path d="M24 55.723H0v2h24v-2z" fill="#EC111A"/><path d="M55 59.223c10.493 0 19-1.12 19-2.5 0-1.381-8.507-2.5-19-2.5s-19 1.119-19 2.5c0 1.38 8.507 2.5 19 2.5z" fill="#F6F6F6"/><path d="M108 55.723H84v2h24v-2zM30 23.992v.71c.19 13.12 10.93 23.62 24.05 23.52 13.12-.1 23.7-10.76 23.7-23.88S67.17.572 54.05.472C40.93.372 30.19 10.882 30 23.992z" fill="#EC111A"/><path d="M57.28 23.993l5.51-5.51a2.668 2.668 0 000-3.77 2.668 2.668 0 00-3.77 0l-5.51 5.51-5.51-5.51a2.668 2.668 0 00-3.77 0 2.668 2.668 0 000 3.77l5.51 5.51-5.51 5.51a2.668 2.668 0 000 3.77 2.668 2.668 0 003.77 0l5.51-5.51 5.51 5.51a2.668 2.668 0 003.77 0 2.668 2.668 0 000-3.77l-5.51-5.51z" fill="#fff"/></g><defs><clipPath id="clip0_1888_12146"><path fill="#fff" transform="translate(0 .473)" d="M0 0h108v58.75H0z"/></clipPath></defs></svg>