<svg width="56" height="57" fill="none" xmlns="http://www.w3.org/2000/svg"><path d="M4.66 24.287l3.15-9.67a5.749 5.749 0 015.462-3.966h16.223a5.749 5.749 0 015.024 2.966l5.876 10.601M20.525 10.65v12.648" stroke="#009DD6" stroke-width="1.2" stroke-linecap="round" stroke-linejoin="round"/><path d="M7.304 40.545H3.855a2.3 2.3 0 01-2.3-2.3v-10.14A3.116 3.116 0 013.28 25.31a8.222 8.222 0 013.657-.863h31.71a33.7 33.7 0 0110.624 1.725 7.566 7.566 0 015.174 7.174v4.898a2.3 2.3 0 01-2.3 2.3h-3.45m-11.497.001H18.802" stroke="#EC111A" stroke-width="1.2"/><path clip-rule="evenodd" d="M13.053 46.294a5.749 5.749 0 100-11.498 5.749 5.749 0 000 11.498zm29.894 0a5.749 5.749 0 100-11.498 5.749 5.749 0 000 11.498z" stroke="#009DD6" stroke-width="1.2" stroke-linecap="round" stroke-linejoin="round"/></svg>