<svg width="56" height="56" fill="none" xmlns="http://www.w3.org/2000/svg"><path clip-rule="evenodd" d="M38.14 21.675C27.7 13.067 21.5 7.99 19.539 6.441c-2.944-2.323-1.369-2.012-4.416-2.012-.735 0 .322 2.092.322 2.092l8.049 15.143 14.648.011z" stroke="#EC111A" stroke-width="1.2" stroke-linecap="round" stroke-linejoin="round"/><path d="M21.678 35.472h-8.623a8.048 8.048 0 01-7.819-6.094L1.557 14.776H4.73a3.45 3.45 0 012.438 1.012l5.553 5.553c.214.213.503.333.805.334h32.872c2.3 0 8.048 2.3 8.048 6.898 0 4.6-5.749 6.899-8.048 6.899H37.28" stroke="#7849B8" stroke-width="1.2" stroke-linecap="round" stroke-linejoin="round"/><path clip-rule="evenodd" d="M41.591 30.873c-12.218 10.547-19.4 16.68-21.546 18.396-3.208 2.656-2.748 2.3-4.818 2.3-.908 0 .253-2.3.253-2.3a7429.481 7429.481 0 018.509-17.671c.19-.4.592-.655 1.034-.656l16.568-.069z" stroke="#EC111A" stroke-width="1.2" stroke-linecap="round" stroke-linejoin="round"/><path d="M46.398 26.274h7.473" stroke="#7849B8" stroke-width="1.2" stroke-linecap="round" stroke-linejoin="round"/></svg>