<svg width="23" height="30" fill="none" xmlns="http://www.w3.org/2000/svg"><path clip-rule="evenodd" d="M19.66 9.098H3.34a1.63 1.63 0 00-1.631 1.63v13.057a4.896 4.896 0 004.895 4.896h9.792a4.896 4.896 0 004.896-4.896V10.73a1.63 1.63 0 00-1.632-1.631zM17.375 5.18l-1.418-2.833a1.958 1.958 0 00-1.75-1.083H8.793c-.742 0-1.42.42-1.751 1.083L5.625 5.181h11.75z" stroke="#367AA4" stroke-width="2" stroke-linecap="round" stroke-linejoin="round"/><path d="M9.236 15.624a1 1 0 10-2 0h2zm-2 6.528a1 1 0 102 0h-2zm8.529-6.528a1 1 0 10-2 0h2zm-2 6.528a1 1 0 102 0h-2zm3.61-17.971a1 1 0 100 2v-2zm3.917 2a1 1 0 100-2v2zm-15.667 0a1 1 0 100-2v2zm-3.917-2a1 1 0 100 2v-2zm5.528 11.444v6.527h2v-6.528h-2zm6.529 0v6.527h2v-6.528h-2zm3.61-9.444h3.917v-2h-3.917v2zm-11.75-2H1.708v2h3.917v-2z" fill="#367AA4"/></svg>