<svg width="27" height="30" fill="none" xmlns="http://www.w3.org/2000/svg"><path d="M14.69 6.765a1 1 0 00-1.561-1.25l1.56 1.25zM2.359 20.551l.757.653.023-.027-.78-.626zm-.335.819l-.998-.065v.019l.998.046zm-.274 5.92l-.999-.046a1 1 0 00.004.148l.995-.102zm1.541 1.345l.033 1a1 1 0 00.198-.027l-.23-.973zm5.875-1.392l.23.973a.838.838 0 00.016-.004l-.246-.97zm.754-.478l.772.636.008-.01-.78-.626zm12.61-14.124a1 1 0 10-1.56-1.252l1.56 1.252zm-9.394-7.127a1 1 0 101.56 1.252l-1.56-1.252zm3.89-3.252l.78.626.038-.05-.818-.576zm3.19-.626l.64-.769a1.005 1.005 0 00-.1-.073l-.54.842zm4.38 3.646l.709-.706a1.004 1.004 0 00-.068-.062l-.64.768zm.66 1.608l1 .005-1-.005zm-.677 1.6l-.7-.714a1 1 0 00-.08.088l.78.626zm-3.61 2.899a1 1 0 101.56 1.252l-1.56-1.252zm-6.064-5.397a1 1 0 10-1.978.296l1.978-.296zm6.98 7.014a1 1 0 10-.27-1.982l.27 1.982zM13.13 5.515L1.58 19.925l1.56 1.252L14.69 6.765l-1.56-1.25zM1.602 19.898c-.34.394-.542.888-.576 1.407l1.996.13a.392.392 0 01.094-.23l-1.514-1.307zm-.577 1.426l-.274 5.92 1.998.092.274-5.92-1.998-.092zm-.27 6.068a2.5 2.5 0 002.569 2.243l-.065-2a.5.5 0 01-.514-.448l-1.99.205zm2.767 2.216l5.875-1.392-.461-1.946-5.875 1.392.46 1.946zm5.89-1.396c.502-.127.95-.411 1.28-.81l-1.543-1.273a.435.435 0 01-.229.145l.492 1.938zm1.288-.821L22.53 12.64l-1.56-1.252L9.14 26.14l1.56 1.252zm3.995-20.625l3.11-3.878-1.56-1.251-3.11 3.877 1.56 1.252zm3.148-3.928a1.35 1.35 0 011.833-.36L20.755.794a3.35 3.35 0 00-4.548.893l1.636 1.15zm1.732-.434l4.381 3.647 1.28-1.537L20.855.867l-1.28 1.537zm4.313 3.585c.237.237.37.56.368.895l2 .011a3.258 3.258 0 00-.952-2.32L23.888 5.99zm.368.895a1.258 1.258 0 01-.378.892l1.4 1.428c.621-.608.973-1.44.978-2.309l-2-.01zm-.457.98l-2.83 3.525 1.56 1.252 2.83-3.525-1.56-1.252zM12.926 6.288a7.972 7.972 0 008.957 6.718l-.27-1.982a5.972 5.972 0 01-6.709-5.032l-1.978.296z" fill="#367AA4"/></svg>