<svg width="33" height="54" fill="none" xmlns="http://www.w3.org/2000/svg"><path d="M28.599 11.445H4.4l1.21-7.433c.346-1.728 1.729-2.938 3.457-2.938h14.864c1.729 0 3.111 1.21 3.457 2.938l1.21 7.433zm-4.667 41.481H9.068c-1.728 0-3.111-1.21-3.457-2.938l-1.21-7.432H28.6l-1.21 7.432c-.346 1.728-1.728 2.938-3.457 2.938z" stroke="#009DD6" stroke-miterlimit="10"/><path d="M24.105 22.68c-1.383-1.556-3.803-1.556-5.358 0L16.5 24.925l-2.247-2.247c-1.383-1.555-3.803-1.555-5.358 0-1.556 1.556-1.383 3.976 0 5.531l2.247 2.247 5.358 5.531 5.358-5.53 2.247-2.248c1.382-1.555 1.382-3.975 0-5.53z" stroke="#7849B8" stroke-linecap="round" stroke-linejoin="round"/><path d="M25.142 42.555H7.858c-3.803 0-6.914-3.11-6.914-6.913V18.358c0-3.803 3.111-6.914 6.914-6.914h17.284c3.802 0 6.913 3.111 6.913 6.914v17.284c0 3.802-3.11 6.913-6.913 6.913z" stroke="#EC111A" stroke-miterlimit="10"/></svg>