<svg width="48" height="49" fill="none" xmlns="http://www.w3.org/2000/svg"><path d="M18.336 15.973c0-7.823 6.342-14.165 14.166-14.165 7.823 0 14.165 6.342 14.165 14.165 0 7.824-6.342 14.166-14.165 14.166-7.824 0-14.166-6.342-14.166-14.166z" fill="#138468"/><path fill-rule="evenodd" clip-rule="evenodd" d="M32.554 6.474a1 1 0 011 1v1.133c.958.157 1.834.523 2.537 1.054.957.722 1.64 1.794 1.64 3.06a1 1 0 01-2 0c0-.5-.267-1.028-.845-1.464-.578-.436-1.422-.736-2.396-.736s-1.818.3-2.396.736c-.578.436-.844.964-.844 1.464 0 .501.267 1.028.844 1.464.578.436 1.422.736 2.396.736 1.368 0 2.644.417 3.6 1.139.958.722 1.64 1.794 1.64 3.06s-.682 2.339-1.64 3.06c-.702.531-1.578.897-2.536 1.054v1.133a1 1 0 11-2 0v-1.114c-1.008-.144-1.93-.518-2.664-1.072-.958-.722-1.64-1.795-1.64-3.06a1 1 0 112 0c0 .5.267 1.028.844 1.463.578.437 1.422.736 2.396.736s1.818-.3 2.396-.736c.577-.435.844-.963.844-1.464 0-.5-.266-1.028-.844-1.464-.578-.436-1.422-.735-2.396-.735-1.368 0-2.644-.418-3.6-1.14-.958-.721-1.64-1.794-1.64-3.06s.683-2.338 1.64-3.06c.734-.554 1.656-.93 2.664-1.073V7.474a1 1 0 011-1z" fill="#fff"/><path d="M1.336 32.972c0-7.823 6.342-14.165 14.166-14.165 7.823 0 14.165 6.342 14.165 14.165 0 7.824-6.342 14.166-14.165 14.166-7.824 0-14.166-6.342-14.166-14.166z" fill="#7849B8"/><path fill-rule="evenodd" clip-rule="evenodd" d="M15.556 23.473a1 1 0 011 1v1.133c.958.157 1.834.523 2.537 1.054.956.722 1.64 1.794 1.64 3.06a1 1 0 01-2 0c0-.5-.268-1.028-.845-1.464-.578-.436-1.422-.736-2.396-.736s-1.818.3-2.396.736c-.578.436-.844.964-.844 1.464 0 .501.267 1.029.844 1.464.578.436 1.422.736 2.396.736 1.368 0 2.644.417 3.6 1.139.957.722 1.64 1.794 1.64 3.06 0 1.267-.682 2.339-1.64 3.061-.702.53-1.578.896-2.536 1.053v1.134a1 1 0 01-2 0v-1.114c-1.008-.145-1.93-.519-2.665-1.073-.957-.722-1.639-1.794-1.639-3.06a1 1 0 112 0c0 .5.267 1.028.844 1.464.578.436 1.422.735 2.396.735s1.818-.3 2.396-.736c.577-.435.844-.963.844-1.464 0-.5-.267-1.028-.844-1.464-.578-.436-1.422-.735-2.396-.735-1.368 0-2.644-.417-3.6-1.14-.958-.721-1.64-1.794-1.64-3.06s.682-2.338 1.64-3.06c.734-.554 1.656-.93 2.664-1.073v-1.114a1 1 0 011-1z" fill="#fff"/></svg>